<mxfile host="app.diagrams.net" agent="Mozilla/5.0 (Windows NT 10.0; Win64; x64) AppleWebKit/537.36 (KHTML, like Gecko) Chrome/134.0.0.0 Safari/537.36" version="24.9.1">
  <diagram name="Page-1" id="Nuu9Wgd-5p7HPwW7MUoD">
    <mxGraphModel dx="979" dy="505" grid="1" gridSize="10" guides="1" tooltips="1" connect="1" arrows="1" fold="1" page="1" pageScale="1" pageWidth="827" pageHeight="1169" math="0" shadow="0">
      <root>
        <mxCell id="0" />
        <mxCell id="1" parent="0" />
        <mxCell id="2AubhbGq0Hdw825NKIbD-1" value="" style="triangle;whiteSpace=wrap;html=1;rotation=-90;rounded=1;shadow=1;" vertex="1" parent="1">
          <mxGeometry x="90" y="15" width="380" height="370" as="geometry" />
        </mxCell>
        <mxCell id="2AubhbGq0Hdw825NKIbD-2" value="" style="endArrow=none;html=1;rounded=0;exitX=0.196;exitY=0.096;exitDx=0;exitDy=0;exitPerimeter=0;entryX=0.197;entryY=0.896;entryDx=0;entryDy=0;entryPerimeter=0;sketch=1;curveFitting=1;jiggle=2;" edge="1" parent="1" source="2AubhbGq0Hdw825NKIbD-1" target="2AubhbGq0Hdw825NKIbD-1">
          <mxGeometry width="50" height="50" relative="1" as="geometry">
            <mxPoint x="370" y="250" as="sourcePoint" />
            <mxPoint x="420" y="200" as="targetPoint" />
          </mxGeometry>
        </mxCell>
        <mxCell id="2AubhbGq0Hdw825NKIbD-3" value="" style="endArrow=none;html=1;rounded=0;exitX=0.401;exitY=0.203;exitDx=0;exitDy=0;exitPerimeter=0;entryX=0.399;entryY=0.801;entryDx=0;entryDy=0;entryPerimeter=0;sketch=1;curveFitting=1;jiggle=2;" edge="1" parent="1" source="2AubhbGq0Hdw825NKIbD-1" target="2AubhbGq0Hdw825NKIbD-1">
          <mxGeometry width="50" height="50" relative="1" as="geometry">
            <mxPoint x="141" y="326" as="sourcePoint" />
            <mxPoint x="437" y="325" as="targetPoint" />
          </mxGeometry>
        </mxCell>
        <mxCell id="2AubhbGq0Hdw825NKIbD-4" value="" style="endArrow=none;html=1;rounded=0;exitX=0.598;exitY=0.307;exitDx=0;exitDy=0;exitPerimeter=0;entryX=0.595;entryY=0.702;entryDx=0;entryDy=0;entryPerimeter=0;sketch=1;curveFitting=1;jiggle=2;" edge="1" parent="1" source="2AubhbGq0Hdw825NKIbD-1" target="2AubhbGq0Hdw825NKIbD-1">
          <mxGeometry width="50" height="50" relative="1" as="geometry">
            <mxPoint x="180" y="248" as="sourcePoint" />
            <mxPoint x="401" y="248" as="targetPoint" />
          </mxGeometry>
        </mxCell>
        <mxCell id="2AubhbGq0Hdw825NKIbD-5" value="" style="endArrow=none;html=1;rounded=0;exitX=0.804;exitY=0.404;exitDx=0;exitDy=0;exitPerimeter=0;entryX=0.8;entryY=0.598;entryDx=0;entryDy=0;entryPerimeter=0;sketch=1;curveFitting=1;jiggle=2;" edge="1" parent="1" source="2AubhbGq0Hdw825NKIbD-1" target="2AubhbGq0Hdw825NKIbD-1">
          <mxGeometry width="50" height="50" relative="1" as="geometry">
            <mxPoint x="219" y="173" as="sourcePoint" />
            <mxPoint x="365" y="174" as="targetPoint" />
          </mxGeometry>
        </mxCell>
        <mxCell id="2AubhbGq0Hdw825NKIbD-6" value="UNIT" style="text;html=1;align=center;verticalAlign=middle;whiteSpace=wrap;rounded=0;fontSize=36;shadow=0;fontFamily=Caveat Brush;fontSource=https%3A%2F%2Ffonts.googleapis.com%2Fcss%3Ffamily%3DCaveat%2BBrush;labelBorderColor=none;textShadow=0;fontColor=#009900;" vertex="1" parent="1">
          <mxGeometry x="250" y="340" width="60" height="30" as="geometry" />
        </mxCell>
        <mxCell id="2AubhbGq0Hdw825NKIbD-7" value="Integration" style="text;html=1;align=center;verticalAlign=middle;whiteSpace=wrap;rounded=0;fontSize=36;shadow=0;fontFamily=Caveat Brush;fontSource=https%3A%2F%2Ffonts.googleapis.com%2Fcss%3Ffamily%3DCaveat%2BBrush;fontColor=#CCCC00;" vertex="1" parent="1">
          <mxGeometry x="250" y="260" width="60" height="30" as="geometry" />
        </mxCell>
        <mxCell id="2AubhbGq0Hdw825NKIbD-8" value="Feature" style="text;html=1;align=center;verticalAlign=middle;whiteSpace=wrap;rounded=0;fontSize=36;shadow=0;fontFamily=Caveat Brush;fontSource=https%3A%2F%2Ffonts.googleapis.com%2Fcss%3Ffamily%3DCaveat%2BBrush;fontColor=#CC6600;" vertex="1" parent="1">
          <mxGeometry x="250" y="180" width="60" height="30" as="geometry" />
        </mxCell>
        <mxCell id="2AubhbGq0Hdw825NKIbD-9" value="UI" style="text;html=1;align=center;verticalAlign=middle;whiteSpace=wrap;rounded=0;fontSize=36;shadow=0;fontFamily=Caveat Brush;fontSource=https%3A%2F%2Ffonts.googleapis.com%2Fcss%3Ffamily%3DCaveat%2BBrush;fontColor=#660000;" vertex="1" parent="1">
          <mxGeometry x="250" y="110" width="60" height="30" as="geometry" />
        </mxCell>
        <mxCell id="2AubhbGq0Hdw825NKIbD-10" value="Manual" style="text;html=1;align=center;verticalAlign=middle;whiteSpace=wrap;rounded=0;fontSize=18;shadow=0;fontFamily=Caveat Brush;fontSource=https%3A%2F%2Ffonts.googleapis.com%2Fcss%3Ffamily%3DCaveat%2BBrush;fontColor=#000000;" vertex="1" parent="1">
          <mxGeometry x="250" y="50" width="60" height="30" as="geometry" />
        </mxCell>
      </root>
    </mxGraphModel>
  </diagram>
</mxfile>
